<?xml version="1.0" encoding="UTF-8" standalone="no"?>
<!DOCTYPE svg PUBLIC "-//W3C//DTD SVG 1.1//EN" "http://www.w3.org/Graphics/SVG/1.1/DTD/svg11.dtd">
<svg width="100%" height="100%" viewBox="0 0 55 14" version="1.1" xmlns="http://www.w3.org/2000/svg" xmlns:xlink="http://www.w3.org/1999/xlink" xml:space="preserve" xmlns:serif="http://www.serif.com/" style="fill-rule:evenodd;clip-rule:evenodd;stroke-linecap:round;stroke-linejoin:round;stroke-miterlimit:1.5;">
    <g id="Artboard1" transform="matrix(1,0,0,1,0.0423729,-0.482477)">
        <rect x="-0.042" y="0.482" width="54.823" height="13.035" style="fill:none;"/>
        <clipPath id="_clip1">
            <rect x="-0.042" y="0.482" width="54.823" height="13.035"/>
        </clipPath>
        <g clip-path="url(#_clip1)">
            <g transform="matrix(1,0,0,1,0.957627,0.482477)">
                <g transform="matrix(1.12444,0,0,1.12444,-17.3698,-14.8344)">
                    <g transform="matrix(0.169492,0,0,0.169492,-0.191585,7.63761)">
                        <path d="M98.003,100.935L97.996,100.03L97.66,99.273L97.051,93.022C97.051,93.022 100.981,89.064 100.974,89.072C100.967,89.079 107.934,86.111 107.934,86.111L108.989,86.062L109.087,91.017L107.119,98.042C107.119,98.042 107.094,99.102 107.093,99.065C107.092,99.029 107.963,99.945 107.963,99.945L110.041,99.918L110.962,96.058L112.007,91.094L112.96,91.079L114.052,93.952L115.075,98.951L116.022,99.954L118.987,99.934L118.41,98.11L117.829,94.118L116.972,87.996L117.953,84.982L119.956,81.065L124.998,80.984C124.998,80.984 125.949,79.018 125.921,79.03C125.892,79.041 126.918,78.049 126.918,78.049L128.988,77.04L130.011,74.057L134.963,73.98L139.02,75.927L143.011,75.981L143.006,75.015L138.989,74.042L134.979,72.076L133.972,71.084L128.035,70.964L125.915,70.082L119.006,70.074L116.998,70.949L105.948,70.927L103.05,70.153L99.053,70.097L96.027,71.993L92.078,76.984L91.01,82.95L90.069,85.972L89.066,88.904L90.969,86.037L92.029,83.071L92.969,82.089L93.921,85.997L92.921,90.051L92.046,92.023L87.113,96.996L87.024,98.938L88.059,99.963L89.908,99.969L90.029,98.018L92.946,94.997L93.972,94.048L94.061,99.96L94.979,100.948L98.003,100.935Z" style="stroke:black;stroke-width:0.44px;"/>
                    </g>
                    <g transform="matrix(0.169492,0,0,0.169492,-0.191585,7.63761)">
                        <path d="M142.169,98.869L148.855,99.066L149.019,92.174L155.052,83.107L158.901,80.055L161.998,78.11L163.959,78.087L165.103,83.805L166.069,86.787L167.043,92.213L167.965,99.89L176.96,99.919L176.999,97.03L171.075,88.019L171.006,76.084L180.963,76.022L188.939,73.898L192.49,75.218L194.948,78.981L196,82.025L195.083,87.078L194.081,97.898L194.087,99.978L201.978,99.92L201.964,98.124L206.929,97.898L206.908,94.988L204.045,91.042L203.855,86.18L202.019,82.144L202.867,74.049L203.803,64.022L204.867,58.082L205.992,57.987L211.967,62.82L212.939,62.876L213.871,61.209L219.893,65.922L220.044,77.989L220.964,80.054L221.026,84.038L219.992,86.924L219.017,87.998L216.908,88.027L215.921,86.906L215.179,86.229L214.112,87.137L216.787,89.975L220.011,89.993L222.942,88.042L223.951,84.211L224.176,72.057L225.732,68.146L226.047,66.176L230.89,69.007L226.036,63.194L224.867,57.285L221.926,48.215L219.08,43.064L213.126,38.238L206.958,33.936L204.877,33.015L202.125,32.997L200.96,34.934L199.066,35.896L191.148,35.843L186.407,37.959L172.988,37.812L171.913,36.918L167.911,36.873L164.152,38.029L159.031,42.985L155.131,51.141L154.211,54.135L153.225,58.128L152.29,61.185L151.918,65.992L150.316,70.098L148.25,73.116L146.132,75.771L149.9,73.056L151.902,69.933L152.953,66.982L153.893,64.016L155.063,61.264L156.118,63.945L155.305,69.02L154.182,73.07L144.234,90.188L143.27,93.201L142.255,96.125L142.169,98.869Z" style="stroke:black;stroke-width:0.44px;"/>
                    </g>
                </g>
                <g transform="matrix(0.12153,0,0,0.12153,34.5403,3.72088)">
                    <text x="-43.271px" y="26.908px" style="font-family:'Georgia', serif;font-size:47.379px;fill:rgb(2,165,147);">LIBERTY</text>
                    <text x="27.526px" y="51.594px" style="font-family:'Georgia', serif;font-size:24.685px;fill:rgb(2,165,147);">KIDS</text>
                </g>
            </g>
        </g>
    </g>
</svg>
